<svg width="64" height="64" viewBox="0 0 64 64" fill="none" xmlns="http://www.w3.org/2000/svg">
<g clip-path="url(#clip0_167_673)">
<path d="M56.889 8.89063H7.11123C5.37704 8.89016 3.70307 9.5266 2.40723 10.6791L31.1112 32.0017H64.0001V16.0017C64.0001 14.1158 63.2509 12.307 61.9173 10.9734C60.5837 9.63983 58.775 8.89063 56.889 8.89063Z" fill="#6AB2E7"/>
<path d="M56.889 55.1111H7.11123C5.37704 55.1116 3.70307 54.4751 2.40723 53.3227L31.1112 32H64.0001V48C64.0001 49.886 63.2509 51.6947 61.9173 53.0283C60.5837 54.3619 58.775 55.1111 56.889 55.1111Z" fill="#12AD2B"/>
<path d="M2.45867 53.2838L31.1111 31.9984L2.40711 10.6758C1.65053 11.3409 1.04449 12.1596 0.629404 13.0775C0.214321 13.9953 -0.000251899 14.9911 2.21921e-07 15.9984V47.1096C2.21921e-07 49.7407 0.954667 51.8793 2.45867 53.2838Z" fill="#EEEEEE"/>
<path d="M11.5557 25.7773L13.0242 30.2982H17.7779L13.9326 33.0929L15.4011 37.6138L11.5557 34.8191L7.71038 37.6138L9.17883 33.0929L5.3335 30.2982H10.0873L11.5557 25.7773Z" fill="#D7141A"/>
</g>
<defs>
<clipPath id="clip0_167_673">
<rect width="64" height="64" fill="white"/>
</clipPath>
</defs>
</svg>
