<svg width="64" height="64" viewBox="0 0 64 64" fill="none" xmlns="http://www.w3.org/2000/svg">
<path d="M64 48.0017C64 49.8877 63.2508 51.6965 61.9172 53.03C60.5836 54.3636 58.7749 55.1128 56.8889 55.1128H7.11111C5.22513 55.1128 3.41639 54.3636 2.0828 53.03C0.749204 51.6965 0 49.8877 0 48.0017V16.0017C0 14.1158 0.749204 12.307 2.0828 10.9734C3.41639 9.63983 5.22513 8.89063 7.11111 8.89062H56.8889C58.7749 8.89063 60.5836 9.63983 61.9172 10.9734C63.2508 12.307 64 14.1158 64 16.0017V48.0017Z" fill="#141414"/>
<path d="M0 23.1094H64V40.8872H0V23.1094Z" fill="#EEEEEE"/>
<path d="M56.8889 8.89062H7.11111C5.22513 8.89063 3.41639 9.63983 2.0828 10.9734C0.749204 12.307 0 14.1158 0 16.0017L0 23.1128H64V16.0017C64 14.1158 63.2508 12.307 61.9172 10.9734C60.5836 9.63983 58.7749 8.89063 56.8889 8.89062Z" fill="#CE1225"/>
<path d="M26.2227 38.3327C26.2227 38.3327 26.2511 38.7771 26.6387 38.9994C26.6387 38.9994 26.5284 39.3336 26.9444 39.5274C27.3604 39.7211 28.8609 40.0269 31.4724 40.0269C34.084 40.0269 35.556 39.7496 35.9453 39.554C36.3347 39.3602 36.3613 38.9158 36.3613 38.9158C36.3613 38.9158 36.7773 38.6936 36.7507 38.4162C36.7222 38.1389 36.1675 37.8331 36.1675 37.8331C36.1675 37.8331 36.0289 37.4722 35.6395 37.3336C35.2502 37.1949 34.0004 37.9451 31.6111 37.8331C29.2218 37.7229 27.8618 37.3602 27.4173 37.3887C26.9729 37.4171 26.7791 37.8616 26.7791 37.8616C26.7791 37.8616 26.2778 38.0838 26.2227 38.3327Z" fill="#BF9300"/>
<path d="M26.5284 38.3042C26.5053 38.4695 26.8626 38.8322 26.8626 38.8322C26.8626 38.8322 26.8626 39.2482 27.2235 39.3602C27.5844 39.4722 29.0564 39.7495 31.4458 39.7211C33.8351 39.6926 35.5293 39.5539 35.7231 39.3868C35.9169 39.2197 36.084 38.8588 36.084 38.8588C36.084 38.8588 36.4733 38.5815 36.4449 38.3593C36.4164 38.1371 35.8618 37.9984 35.8618 37.9984C35.8618 37.9984 35.7053 37.6642 35.5204 37.5255C35.3355 37.3868 34.1409 38.0802 31.5844 38.0802C29.0831 38.0802 27.6395 37.4686 27.3906 37.4971C27.14 37.5255 26.9746 37.9966 26.9746 37.9966C26.9746 37.9966 26.5569 38.1104 26.5284 38.3042Z" fill="#EEEEEE"/>
<path d="M37.0827 27.5279C37.0827 27.5279 37.0276 26.223 35.8329 26.3884C34.6383 26.5555 34.5547 27.1386 33.2765 27.2773L33.0134 27.3022C32.8002 26.7242 32.6825 26.1153 32.6649 25.4995C32.6649 24.6657 32.9156 24.3048 32.0534 23.8888C31.1929 23.4728 31.0258 23.8604 31.0258 23.8604C31.0258 23.8604 30.3592 23.5262 30.0534 23.7768C29.7476 24.0275 29.9147 24.6657 30.0534 24.4719C30.1921 24.2782 30.7485 24.8328 30.7485 24.8328C30.9369 25.7555 30.4018 26.7546 30.0356 27.311C29.9094 27.2986 29.8081 27.2933 29.6658 27.2773C28.3876 27.1386 28.3041 26.5555 27.1094 26.3884C25.9147 26.2213 25.8596 27.5279 25.8596 27.5279L25.3867 37.6115L26.3592 36.8613L26.3645 36.7422L28.3876 34.9448L28.7254 34.607L27.8881 37.055C27.8881 37.055 26.6098 36.9715 26.9707 37.999C26.9707 37.999 27.1645 37.4159 27.4987 37.5262C27.8329 37.6364 28.8036 37.887 28.8036 37.887L29.1378 38.415L29.5538 38.0257L30.8587 37.9706C30.8587 37.9706 31.2747 38.0808 31.2481 38.4435C31.3245 38.2875 31.3476 38.1108 31.3138 37.9404L31.7067 37.9137C31.6645 38.0925 31.6859 38.2805 31.7672 38.4453C31.7387 38.0844 32.1565 37.9724 32.1565 37.9724L33.4614 38.0275L33.8792 38.4168L34.2134 37.8888C34.2134 37.8888 35.1841 37.6382 35.5165 37.5279C35.8489 37.4177 36.0445 38.0008 36.0445 38.0008C36.4054 36.9733 35.1272 37.0568 35.1272 37.0568L34.3289 34.7226L34.5529 34.9466L36.5761 36.7439L36.5814 36.863L37.5538 37.6133L37.0827 27.5279ZM31.5592 33.6399C29.5556 32.4026 29.3903 29.279 29.3903 29.279C29.3903 29.279 30.6294 29.215 31.5289 28.5839C32.3396 29.3039 33.7227 29.2222 33.7227 29.2222C33.7227 29.2222 33.6285 32.3582 31.5592 33.6399ZM36.1387 27.1404L34.4445 28.751L34.1601 28.8648C33.8685 28.8755 32.4498 28.879 31.5556 28.0844C30.4445 28.863 28.9174 28.9182 28.9174 28.9182L28.6809 28.8239L26.8054 27.1404L26.3129 27.343C26.3343 27.1422 26.4445 26.6906 27.0561 26.7795C28.0587 26.9235 28.4729 27.4746 29.5289 27.5848L29.8276 27.615L29.7227 27.7502C29.8863 27.7502 30.1281 27.7022 30.3058 27.663L30.5067 27.6826L30.4161 27.999C30.5583 27.9564 30.7645 27.8337 30.9334 27.7253L31.3956 27.7697L31.5005 27.9155L31.8525 27.7395L32.0889 27.7164C32.2934 27.8355 32.5849 27.9422 32.5849 27.9422L32.6401 27.6648C32.8907 27.8319 33.3067 27.8319 33.3067 27.8319C33.2587 27.7928 33.2107 27.6933 33.1609 27.6079L33.4169 27.5813C34.4729 27.471 34.8854 26.9199 35.8898 26.7759C36.5014 26.6888 36.6116 27.1386 36.6329 27.3395L36.1387 27.1404Z" fill="#BF9300"/>
<path d="M30.8893 33.5849L29.8884 37.3893L28.2227 37.0569L29.9453 32.168L30.8893 33.5849ZM32.132 33.5849L33.1311 37.3893L34.7987 37.0569L33.076 32.168L32.132 33.5849Z" fill="#EEEEEE"/>
<path d="M29.8066 29.5835C29.8066 29.5835 29.9453 31.1942 30.6671 32.444V29.2227C30.6671 29.2227 30.1942 29.5 29.8066 29.5835ZM33.2786 29.6387C33.2786 29.6387 33.14 31.2493 32.4182 32.4991V29.2778C32.4164 29.2778 32.8893 29.5551 33.2786 29.6387Z" fill="#BF9300"/>
<path d="M30.1387 24.1383C30.1387 24.1383 30.3325 23.9445 30.8889 24.3321C31.2498 24.5845 31.5698 24.7765 31.5698 24.7765C31.5698 24.7765 31.7973 24.5365 32.1316 24.5916C32.4658 24.6467 32.2791 25.1107 32.3342 26.0814C32.3893 27.0538 32.7787 27.4698 32.7787 27.4698L32.3058 27.1925L32.3342 27.4983L31.8062 27.2476L31.5556 27.6085L31.3049 27.2192L30.8996 27.4663L30.7769 27.1356L30.304 27.3863C30.304 27.3863 30.9991 26.5258 31.0542 25.5801C31.0702 25.2974 30.9991 24.6627 30.9991 24.6627C30.9991 24.6627 30.5564 24.1098 30.1387 24.1383Z" fill="#EEEEEE"/>
<path d="M27.6391 38.5005C27.3209 38.6908 27.4453 38.8063 27.6391 38.8899C27.8329 38.9734 28.9991 39.1139 31.3618 39.1672C33.7778 39.2223 35.2782 38.945 35.472 38.833C35.6658 38.7228 35.6942 38.5272 35.3618 38.4721C35.0275 38.417 33.3618 38.6943 31.3333 38.6943C28.8338 38.6961 27.7778 38.417 27.6391 38.5005Z" fill="#BF9300"/>
</svg>
