<svg width="64" height="64" viewBox="0 0 64 64" fill="none" xmlns="http://www.w3.org/2000/svg">
<g clip-path="url(#clip0_167_680)">
<path d="M56.8888 8.89062H7.11105C6.1122 8.89272 5.12514 9.1066 4.215 9.51816C3.30487 9.92971 2.49235 10.5296 1.83105 11.2782V32.0017H63.9999V16.0017C63.9999 14.1158 63.2507 12.307 61.9171 10.9734C60.5836 9.63983 58.7748 8.89063 56.8888 8.89062Z" fill="#3E9A00"/>
<path d="M56.8888 55.1111H7.11105C6.1122 55.109 5.12514 54.8951 4.215 54.4836C3.30487 54.072 2.49235 53.4722 1.83105 52.7236V32H63.9999V48C63.9999 49.886 63.2507 51.6947 61.9171 53.0283C60.5836 54.3619 58.7748 55.1111 56.8888 55.1111Z" fill="#4289DE"/>
<path d="M1.83111 11.2773C0.657793 12.5714 0.00544685 14.2542 0 16.0009L0 48.0009C0 49.8213 0.705778 51.4658 1.83111 52.7245L64 32.0009L1.83111 11.2773Z" fill="#EB0438"/>
<path d="M20.7785 43.2231C19.966 43.5573 17.2229 43.7777 16.5562 43.2231C15.8896 42.6684 17.8896 41.4453 17.8896 41.4453C17.8896 41.4453 15.8896 41.5555 13.5002 40.7235C11.1109 39.8915 9.9998 38.3911 8.88869 38.3911C9.61047 37.6693 12.0549 38.8906 12.0549 38.8906C12.0549 38.8906 7.66558 36.8355 7.44336 33.8346C8.8318 35.7795 10.3874 36.2239 10.3874 36.2239C10.3874 36.2239 6.88692 33.7244 8.05492 30.0568C8.33403 31.0026 9.0558 32.0017 9.0558 32.0017C9.0558 32.0017 7.72247 27.8915 9.22292 25.5573C9.72247 26.0017 9.88958 28.8355 9.88958 28.8355C9.88958 28.8355 9.66736 26.1137 10.0567 24.6133C10.4442 23.1128 11.6105 22.5582 11.6105 22.5582L11.1109 25.3351C11.1109 25.3351 12.11 24.5564 12.4994 23.8915C12.8887 23.2266 14.7216 20.7804 16.0549 20.6133C16.222 21.0026 14.9989 22.1688 14.9989 22.1688C14.9989 22.1688 18.2771 20.5013 19.7776 21.2248C18.8887 22.0586 16.1118 22.3911 16.1118 22.3911C16.1118 22.3911 17.5554 23.0577 18.2238 22.5582C18.0567 23.0577 16.9456 23.4471 16.1687 23.2799C15.3882 23.1128 14.6665 23.7795 14.6665 23.7795C14.6665 23.7795 15.7847 24.2506 16.2771 23.7795C15.9429 24.8355 14.2771 24.6133 13.7207 24.6133C13.1642 24.6133 11.1642 25.9466 11.1642 26.8906C12.0531 26.6133 12.7198 25.5022 12.7198 25.5022C12.7198 25.5022 13.3331 27.1128 11.7225 27.8346C10.1118 28.5564 10.222 29.9466 10.222 29.9466C10.222 29.9466 11.1145 29.6195 11.2211 28.8355C12.1651 29.2799 10.9438 30.0586 10.6665 30.5031C10.3891 30.9475 10.3322 32.9475 10.3322 32.9475C10.3322 32.9475 10.8318 31.2248 10.9438 31.0026C11.0558 30.7804 11.8896 32.5564 11.5554 33.3351C11.2211 34.1137 10.8887 35.7244 11.3882 36.6133C11.7225 36.3911 11.5002 34.6684 11.5002 34.6684C11.5002 34.6684 12.6665 35.7244 12.7234 36.7804C13.0576 37.0577 13.0576 36.1137 13.0576 36.1137C13.0576 36.1137 13.8362 37.7244 14.1136 38.6133C14.3909 39.5022 16.0016 40.2808 16.7802 40.2239C17.5589 40.1688 18.5029 40.7235 18.5029 40.7235C18.5029 40.7235 18.1687 38.7786 18.1687 37.9466C18.1687 37.1128 18.2789 36.2239 18.2789 36.2239C18.2789 36.2239 14.9456 37.8346 14.8336 34.7235C15.6674 35.6675 16.7216 35.3351 16.7216 35.3351C16.7216 35.3351 14.6665 34.9457 14.7767 33.1128C15.4434 33.9466 16.4442 33.9466 16.4442 33.9466C16.4442 33.9466 15.3331 33.2319 15.6105 32.1173C16.8887 32.3359 17.6105 34.2808 17.6105 34.2808C17.6105 34.2808 17.7207 32.6773 17.6656 32.1173C17.6105 31.5573 17.5554 30.5031 17.5554 30.5031C17.5554 30.5031 15.5002 31.3919 15.166 28.6702C15.7207 29.3919 16.3322 29.1146 16.3322 29.1146C16.3322 29.1146 15.166 28.2257 15.6656 26.5582C16.0549 27.6693 16.9438 28.1137 16.9438 28.1137C16.9438 28.1137 16.5545 27.2248 16.5545 26.7253C17.3331 26.7253 18.1651 27.5039 17.998 29.2248C19.054 28.1688 18.8869 26.7253 18.6647 26.2808C17.7207 26.6151 16.8869 25.3919 16.8869 25.3919C16.8869 25.3919 18.0531 25.8364 18.2754 25.0026C16.8869 25.3919 16.5527 24.2808 16.5527 24.2808C16.5527 24.2808 17.7758 23.8364 18.3856 24.2808C18.83 23.9466 18.5527 23.2248 18.5527 23.2248C18.5527 23.2248 20.2754 23.8364 19.1074 25.3368C19.3296 26.0586 19.3296 27.1697 19.3296 27.1697C19.3296 27.1697 19.8842 25.4471 21.2745 25.3368C20.4407 26.1155 20.7749 26.8373 20.7749 26.8373C20.7749 26.8373 21.7776 26.6684 21.8878 26.0568C23.166 27.1128 20.6647 28.3893 20.6647 28.3893C20.6647 28.3893 21.3865 28.6666 21.998 27.8897C22.7767 29.1679 20.7749 29.5004 19.998 29.2231C19.2194 28.9457 18.7749 28.8888 18.6096 29.3902C18.4425 29.8897 18.2202 32.1671 18.2754 32.0017C18.3305 31.8346 18.7234 30.3484 19.1642 29.7244C19.1091 30.5582 19.3865 31.3351 19.3865 31.3351C19.3865 31.3351 21.1642 31.3902 20.7198 29.7244C22.4425 29.6142 20.3856 32.1173 20.3856 32.1173C20.3856 32.1173 21.2247 32.7875 22.2487 32.1173C22.6078 33.6693 20.8851 33.3351 20.2736 33.3351C19.662 33.3351 18.1616 33.2248 18.3856 34.2791C18.6114 35.3351 19.166 37.3351 19.166 37.3351C19.166 37.3351 19.3331 36.1119 19.8327 35.2231C20.3322 34.3342 20.9989 34.0568 20.7216 35.4453C21.4434 35.3351 21.9998 34.1119 21.9998 34.1119C21.9998 34.1119 22.8336 35.6124 21.0558 36.6684C21.4451 37.0577 22.302 36.0017 22.302 36.0017C22.302 36.0017 22.5011 37.5573 21.1678 38.0017C19.8345 38.4462 19.3349 38.1688 19.2229 39.0008C19.1127 39.8346 19.2229 40.5013 19.2229 40.5013C19.2229 40.5013 19.8896 40.6115 20.9456 39.9466C22.0016 39.2799 22.8336 39.8915 23.502 39.1679C24.1687 38.4462 24.2807 36.4462 25.39 35.7226C25.4451 36.4444 25.39 37.1662 25.39 37.1662C25.39 37.1662 26.2238 36.6115 26.2238 35.7777C26.2238 34.9439 26.3909 34.4995 26.6683 34.1671C26.9456 33.8328 26.334 33.0631 26.2789 32.1155C26.2238 31.1679 26.7394 30.7235 26.7394 30.7235C26.7394 30.7235 27.0558 32.8355 27.7794 33.5573C28.334 31.7795 27.3349 30.9457 27.1127 29.9466C26.8905 28.9475 27.502 28.8906 26.446 28.1688C25.39 27.4471 24.7785 26.3911 25.1678 25.2248C25.8896 26.8355 26.8354 26.9475 26.8354 26.9475C26.8354 26.9475 25.8363 24.4479 25.2798 24.6151C24.7251 24.7822 23.3349 25.4488 22.3358 24.4479C23.7243 24.5031 23.9465 24.2257 23.9465 24.2257C23.9465 24.2257 23.6122 23.1697 22.3358 23.5591C21.0576 23.9484 19.4469 23.2266 18.9474 22.5599C19.8914 22.8373 20.1705 22.6702 20.1705 22.6702L19.2265 22.0586C19.2265 22.0586 20.0051 22.2257 20.5598 22.0586C21.1145 21.8915 21.2816 21.5039 22.0034 22.1137C22.7251 22.7253 23.7811 23.3368 23.7811 23.3368C23.7811 23.3368 21.9482 22.1137 22.0585 20.6151C24.3358 21.2817 24.9474 23.3368 25.5038 23.6711C26.0602 24.0053 26.9438 24.8906 27.2211 25.7795C27.4985 24.7235 26.3874 22.8906 26.3874 22.8906C26.3874 22.8906 28.3322 23.0577 28.4425 27.8346C28.942 27.5004 28.4425 25.1128 28.4425 25.1128C28.4425 25.1128 30.2202 26.0017 29.7758 28.5013C29.3314 31.0008 28.6096 32.1155 28.6096 32.1155C28.6096 32.1155 29.6958 31.6124 29.8469 30.3893C31.1091 31.6124 30.1082 33.6106 28.0531 36.2222C30.4051 35.1111 30.4051 33.2782 30.4051 33.2782C30.4051 33.2782 30.8869 35.7226 28.8318 37.1679C26.7767 38.6115 25.8309 38.8355 25.8309 38.8355C25.8309 38.8355 27.2194 38.9457 27.886 39.1128C27.5518 41.0008 21.0522 41.2799 19.8309 41.4453C21.3331 42.3342 21.2727 43.0204 20.7785 43.2231Z" fill="#FFC827"/>
</g>
<defs>
<clipPath id="clip0_167_680">
<rect width="64" height="64" fill="white"/>
</clipPath>
</defs>
</svg>
