<svg width="64" height="64" viewBox="0 0 64 64" fill="none" xmlns="http://www.w3.org/2000/svg">
<path d="M56.8889 8.89062H7.11111C5.22513 8.89063 3.41639 9.63983 2.0828 10.9734C0.749204 12.307 0 14.1158 0 16.0017L0 24.0017H64V16.0017C64 14.1158 63.2508 12.307 61.9172 10.9734C60.5836 9.63983 58.7749 8.89063 56.8889 8.89062Z" fill="#141414"/>
<path d="M0 48C0 49.886 0.749204 51.6947 2.0828 53.0283C3.41639 54.3619 5.22513 55.1111 7.11111 55.1111H56.8889C58.7749 55.1111 60.5836 54.3619 61.9172 53.0283C63.2508 51.6947 64 49.886 64 48V40H0V48Z" fill="#007A3D"/>
<path d="M0 24H64V40H0V24Z" fill="#EEEEEE"/>
<path d="M2.40178 10.6719C1.64658 11.3384 1.04019 12.1582 0.626382 13.0765C0.212569 13.9949 -0.000958008 14.9908 3.23104e-06 15.9981V47.9981C3.23104e-06 50.119 0.928003 52.023 2.40178 53.3261L31.1111 31.9981L2.40178 10.6719Z" fill="#CE1126"/>
<path d="M11.7812 34.3792L13.6585 36.1143L13.4718 33.5632L15.9998 33.1774L13.8896 31.7338L15.1643 29.5169L12.7198 30.2654L11.7812 27.8867L10.8425 30.2654L8.39806 29.5169L9.67094 31.7338L7.5625 33.1774L10.0887 33.5632L9.90383 36.1143L11.7812 34.3792Z" fill="white"/>
</svg>
