<svg width="64" height="64" viewBox="0 0 64 64" fill="none" xmlns="http://www.w3.org/2000/svg">
<path d="M56.8889 8.89062H7.11111C5.22513 8.89063 3.41639 9.63983 2.0828 10.9734C0.749204 12.307 0 14.1158 0 16.0017L0 48.0017C0 49.8877 0.749204 51.6965 2.0828 53.03C3.41639 54.3636 5.22513 55.1128 7.11111 55.1128H56.8889C58.7749 55.1128 60.5836 54.3636 61.9172 53.03C63.2508 51.6965 64 49.8877 64 48.0017V16.0017C64 14.1158 63.2508 12.307 61.9172 10.9734C60.5836 9.63983 58.7749 8.89063 56.8889 8.89062Z" fill="#006C35"/>
<path d="M15.8559 24.9751C16.9794 25.0818 16.359 23.0746 16.7661 22.7102C16.8425 22.5306 16.9848 22.5289 16.9954 22.7564V24.4595C16.9848 25.0142 17.3492 25.176 17.6319 25.2915C17.927 25.2684 18.1225 25.2791 18.2381 25.5653L18.3768 28.5129C18.3768 28.5129 19.0594 28.7084 19.0914 26.8542C19.1252 25.7662 18.8745 24.856 19.0221 24.6444C19.0274 24.4364 19.2923 24.424 19.4772 24.5253C19.7705 24.7315 19.9021 24.9875 20.3572 24.8862C21.0523 24.696 21.4683 24.3582 21.479 23.8249C21.4381 23.3182 21.3812 22.8115 21.1625 22.3049C21.1928 22.2124 21.0292 21.9742 21.0594 21.8818C21.1839 22.0773 21.3741 22.0613 21.4168 21.8818C21.2994 21.4924 21.1163 21.1191 20.8176 20.9573C20.5723 20.7404 20.2132 20.7849 20.0816 21.2364C20.0212 21.7555 20.2701 22.3742 20.647 22.8773C20.727 23.0746 20.8408 23.4018 20.791 23.6969C20.5901 23.8106 20.3874 23.7644 20.2203 23.5866C20.2203 23.5866 19.6674 23.1724 19.6674 23.08C19.815 22.1413 19.7012 22.0346 19.6194 21.7751C19.5625 21.416 19.3919 21.3004 19.2532 21.0551C19.1145 20.9093 18.9279 20.9093 18.839 21.0551C18.5936 21.4782 18.7074 22.3884 18.8852 22.7955C19.0114 23.1689 19.207 23.4053 19.1145 23.4053C19.0381 23.6169 18.8816 23.5671 18.7679 23.3235C18.6043 22.8186 18.5723 22.0666 18.5723 21.7271C18.5225 21.3075 18.4692 20.4098 18.1936 20.1822C18.0248 19.9529 17.7741 20.0631 17.687 20.2746C17.6692 20.6906 17.6656 21.1084 17.7136 21.4942C17.9021 22.168 17.9625 22.7618 18.055 23.4533C18.0799 24.3795 17.5199 23.8551 17.5448 23.3964C17.6745 22.8009 17.6408 21.8622 17.5252 21.624C17.4345 21.3875 17.3261 21.3271 17.1056 21.3662C16.9314 21.352 16.4799 21.8462 16.3519 22.664C16.3519 22.664 16.2434 23.0853 16.1972 23.4604C16.135 23.8835 15.8576 24.1822 15.6621 23.4018C15.4932 22.8346 15.3901 21.4355 15.1074 21.7626C15.0256 22.856 14.9279 24.7795 15.8559 24.9751Z" fill="white"/>
<path d="M17.5466 25.7734C16.6222 25.7912 15.2693 26.9877 15.2319 27.6508C16.2062 27.1814 17.1644 26.7299 18.1564 26.2463C17.9964 26.0063 18.1475 25.7912 17.5466 25.7734Z" fill="white"/>
<path d="M22.6434 29.3593C23.0718 27.9317 22.574 26.8793 22.8069 26.8846C23.2994 27.4162 23.9892 26.9557 24.1403 26.7708C24.206 26.6784 24.3678 26.6179 24.4816 26.7388C24.8674 27.0162 25.5465 26.8846 25.6869 26.3975C25.7757 25.9083 25.8304 25.4134 25.8505 24.9166C25.5358 25.0144 25.3012 25.0802 25.2798 25.2099L25.214 25.6331C25.1874 25.7699 24.9154 25.7753 24.9047 25.6011C24.7856 25.0588 24.2914 24.9877 23.9927 25.8286C23.7918 25.9922 23.4292 26.0242 23.39 25.7806C23.438 25.2171 23.2105 25.1406 22.7554 25.4055C22.6096 24.2873 22.462 23.2188 22.3163 22.1006C22.5065 22.0953 22.6807 22.2357 22.8532 22.0188C22.6629 21.4268 22.2612 20.2179 22.0389 20.1308C21.9305 19.9993 21.838 20.0811 21.6976 20.1148C21.4594 20.1913 21.2372 20.3975 21.3065 20.7975C21.5892 22.5131 21.774 23.8197 22.0549 25.5353C22.0976 25.7362 21.9305 26.0011 21.7136 25.9744C21.3456 25.7255 21.2532 25.2206 20.6238 25.2419C20.1669 25.2473 19.646 25.7415 19.582 26.2197C19.5056 26.5984 19.4789 27.0108 19.582 27.3433C19.902 27.7273 20.2878 27.6899 20.6238 27.6028C20.8994 27.4891 21.1287 27.2117 21.2247 27.2775C21.2905 27.3575 21.2407 28.2695 19.9234 28.9699C19.1252 29.3273 18.4905 29.4091 18.1492 28.7584C17.9376 28.3513 18.1652 26.8046 17.6443 27.1637C16.1029 31.1371 21.2532 31.6882 21.8292 27.3273C21.8843 27.1477 22.1012 26.9682 22.1385 27.2615C22.0194 31.2117 18.1545 31.4837 17.4985 30.2411C17.3349 29.9477 17.2869 29.2971 17.2709 28.9059C17.1732 28.1291 16.766 28.4277 16.702 29.1975C16.6363 29.6259 16.654 29.7468 16.654 30.1575C16.8585 33.2775 21.8363 31.9371 22.6434 29.3593ZM20.7234 26.6606C20.6914 26.7211 20.5509 26.6962 20.4478 26.6962C20.3305 26.6908 20.2754 26.6713 20.2043 26.5771C20.1723 26.4704 20.2718 26.3691 20.3163 26.2891C20.3714 26.1948 20.6683 26.0971 20.7732 26.3602C20.7926 26.4101 20.7982 26.4644 20.7894 26.5172C20.7807 26.5701 20.7579 26.6196 20.7234 26.6606Z" fill="white"/>
<path d="M24.1813 23.1265C24.4906 23.0127 25.9573 21.3362 25.9573 21.3362C25.8809 21.2705 25.8133 21.2225 25.7369 21.1567C25.6551 21.0856 25.664 21.0145 25.7369 20.9451C26.0995 20.7336 25.984 20.2696 25.7938 20.058C25.6707 19.9977 25.5353 19.9669 25.3982 19.9681C25.2612 19.9693 25.1264 20.0026 25.0044 20.0651C24.7502 20.3087 24.6898 20.6998 24.8906 20.9451C25.0862 21.0376 25.2818 21.2349 25.152 21.3434C24.5529 21.9834 22.9102 23.0874 23.1004 23.1265C23.1413 23.1798 24.1493 23.178 24.1813 23.1265ZM25.2675 20.4936C25.3618 20.4705 25.4826 20.554 25.5395 20.6785C25.5964 20.8029 25.5662 20.922 25.4738 20.9451H25.4702C25.3778 20.9682 25.2569 20.8847 25.2 20.7602C25.1449 20.634 25.1751 20.5167 25.2675 20.4936ZM15.7546 30.6802C15.5129 31.1727 15.4115 30.8349 15.3902 30.5594C15.3624 30.0966 15.3857 29.6321 15.4595 29.1745C15.52 28.7834 15.4595 28.9025 15.3351 29.0607C14.7858 29.9354 14.7378 31.2438 15.0418 31.6331C15.2018 31.818 15.4666 31.8998 15.664 31.8394C16.0089 31.69 16.16 30.9896 16.0782 30.7354C15.9609 30.5558 15.8702 30.5274 15.7546 30.6802ZM33.8542 21.4216C34.4871 22.2714 35.088 23.1371 35.6764 24.0189C35.792 24.7834 35.8755 25.53 35.9253 26.2714C36.0231 27.7007 36.0515 29.2474 35.9626 30.7531C36.2293 30.7638 36.6613 30.3194 36.8106 29.6705C36.9084 28.7727 36.7751 27.1745 36.7662 26.6447C36.7544 26.3126 36.7384 25.9808 36.7182 25.6491C37.4186 26.794 38.1013 27.9922 38.768 29.3238C39.0115 29.21 38.9582 27.8482 38.816 27.6562C38.2826 26.5131 37.5484 25.3825 37.3138 24.9487C37.2266 24.7887 36.9298 24.3336 36.576 23.8127C36.5456 23.397 36.4958 22.9829 36.4266 22.5718C36.3164 21.8109 36.7413 22.6554 36.6826 22.2127C36.5458 21.4518 36.1226 20.938 35.6284 20.2411C35.4684 20.0154 35.4738 19.9691 35.2266 20.2962C35.1393 20.4922 35.0991 20.7059 35.1093 20.9202C35.0321 20.8068 34.9497 20.697 34.8622 20.5914C34.5939 20.3599 34.3243 20.1299 34.0533 19.9016C33.8738 19.7736 33.4364 19.5425 33.3582 19.9265C33.3218 20.1956 33.3351 20.4692 33.3973 20.7336C33.4435 20.9238 33.7191 21.2402 33.8542 21.4216ZM35.1698 21.3789C35.2035 21.5265 35.2391 21.674 35.2622 21.8251L35.2889 21.9691C35.2143 21.8649 35.1366 21.7629 35.056 21.6634C34.7644 21.3185 35.0062 21.3931 35.1698 21.3789Z" fill="white"/>
<path d="M38.9672 29.6735C38.3485 30.3189 37.4561 31.1135 36.4854 31.4815C36.3805 31.5988 36.745 32.102 37.2143 32.102C38.0019 32.0095 38.6952 31.5669 39.337 30.4024C39.5094 30.1322 39.8116 29.5509 39.8187 29.0993C39.8774 26.4575 39.6872 24.4006 39.2907 22.4913C39.2642 22.3381 39.2715 22.1809 39.3121 22.0309C39.3619 21.9704 39.5361 22.0309 39.6285 21.8815C39.7619 21.7429 39.2712 20.6051 38.9903 20.1677C38.8907 19.9722 38.857 19.8406 38.6916 20.1909C38.5174 20.4753 38.4019 20.9713 38.4161 21.4335C38.7912 24.0344 38.9067 26.3117 39.1521 28.9126C39.1716 29.1633 39.1343 29.5295 38.9672 29.6735ZM49.3316 23.078C49.305 22.8931 49.2232 22.4628 49.2552 22.4077C49.305 22.2762 49.5627 22.422 49.6552 22.2709C49.7903 22.134 48.9903 21.1064 48.7112 20.6691C48.6099 20.4735 48.5761 20.342 48.4107 20.6922C48.2365 20.9766 48.1761 21.4869 48.2454 21.9349C48.6632 24.7597 48.9743 26.8824 49.0383 29.3873C49.001 29.6255 48.9939 29.7535 48.8819 30.0522C48.6347 30.3686 48.3627 30.7633 48.105 30.9553C47.849 31.1455 47.3032 31.3286 47.1236 31.4691C46.5601 31.798 46.5583 32.1731 47.017 32.1855C47.8027 32.0931 48.7343 32.0291 49.3761 31.0584C49.5485 30.7882 49.753 30.054 49.7619 29.6024C49.8205 26.9606 49.7281 24.9873 49.3316 23.078ZM43.3743 25.2771C43.3814 24.9144 43.4152 24.4344 43.4347 24.134C43.4436 24.022 43.4703 23.8957 43.577 23.8673C43.6854 23.8389 43.8774 23.9775 43.8792 23.8602C43.8579 23.6309 43.8116 23.2895 43.6819 23.1277C43.5041 22.8646 43.033 22.9286 42.9494 23.3411C42.9512 23.494 43.0205 23.5757 43.0081 23.7144C42.9867 23.7926 42.905 23.846 42.7112 23.7535C42.7432 23.7251 42.585 23.5064 42.585 23.5064C42.4339 23.414 42.2312 23.5117 42.1014 23.5953C42.0544 23.6849 42.0264 23.7833 42.0191 23.8842C42.0117 23.9851 42.0252 24.0865 42.0587 24.182C42.2721 24.5855 43.017 25.27 43.3743 25.2771Z" fill="white"/>
<path d="M43.1236 22.1868C43.6445 22.825 44.1761 23.4721 44.7112 24.1299C44.8268 25.5983 44.857 26.8001 44.9708 28.2686C44.9548 28.8908 44.7628 29.433 44.5796 29.5112C44.5796 29.5112 44.3041 29.6712 44.1192 29.4952C43.9841 29.4401 43.4454 28.5974 43.4454 28.5974C43.1699 28.345 42.9885 28.4161 42.793 28.5974C42.2525 29.1183 42.009 30.0961 41.6428 30.7681C41.5468 30.9192 41.2801 31.0472 40.9832 30.7574C40.2312 29.7281 40.6721 28.265 40.5796 28.6419C39.9094 29.3974 40.2045 30.6472 40.3556 30.9174C40.5761 31.3583 40.7556 31.6428 41.1859 31.8614C41.577 32.1494 41.8828 31.9681 42.0499 31.7672C42.4445 31.3566 42.4499 30.3166 42.6348 30.1068C42.7628 29.7281 43.0916 29.7921 43.2499 29.961C43.3948 30.1655 43.5869 30.332 43.8099 30.4463C44.1779 30.7717 44.617 30.8303 45.049 30.5334C45.3441 30.3681 45.5379 30.153 45.7103 29.7281C45.9023 29.2161 45.7974 26.8623 45.7583 25.4508C46.0339 25.8063 46.3023 26.1779 46.5743 26.5494C46.6934 27.7281 46.761 28.9014 46.7219 30.0997C46.6934 30.3397 47.5574 29.3886 47.5503 28.937C47.5468 28.5726 47.5503 28.2419 47.5503 27.9308C47.9663 28.5566 48.3716 29.2019 48.7521 29.8846C48.9903 29.7601 48.9121 28.4179 48.761 28.233C48.3219 27.497 47.737 26.7308 47.3334 26.1832C47.3068 26.1139 47.2925 26.0357 47.2605 25.9699C47.0988 25.5948 47.2001 25.2926 47.1236 24.8943C47.049 24.4943 47.0685 23.897 46.953 23.4223C46.921 23.2374 46.825 22.6437 46.8534 22.5886C46.8996 22.4552 47.0774 22.5921 47.1645 22.4392C47.2943 22.297 46.7148 20.7948 46.4196 20.3646C46.313 20.1726 46.121 20.2383 45.8828 20.5512C45.6641 20.7574 45.7459 21.2268 45.8294 21.673C46.0374 22.7539 46.2116 23.7903 46.361 24.8161C46.0413 24.3911 45.7183 23.9686 45.3921 23.5486L45.3779 23.4703C45.3779 23.4508 45.3299 22.5388 45.2872 22.3219C45.2801 22.2348 45.2588 22.2081 45.3512 22.2188C45.449 22.3006 45.4614 22.3059 45.5236 22.3343C45.6232 22.3521 45.7103 22.1832 45.6516 22.0286L44.7325 20.3361C44.6596 20.2632 44.5636 20.185 44.4481 20.3557C44.3763 20.4183 44.3189 20.4957 44.2796 20.5825C44.2404 20.6693 44.2202 20.7635 44.2205 20.8588C44.249 21.2588 44.3183 21.6677 44.345 22.0694L44.3841 22.2863C44.3432 22.2383 44.2934 22.1779 44.2721 22.1566C43.4916 21.3352 44.6312 22.0232 44.1228 21.3886C43.6925 20.9157 43.5681 20.7681 43.1983 20.4837C43.0134 20.3646 42.9014 20.137 42.841 20.5246C42.8106 20.8644 42.8016 21.2058 42.8143 21.5468C42.8143 21.7103 42.9796 22.009 43.1236 22.1868ZM27.2996 24.105C27.7476 24.2899 28.0339 23.4366 28.2188 22.5014C28.3432 22.2383 28.4392 22.2099 28.5032 22.345C28.4872 23.5894 28.5921 23.865 28.9121 24.2437C29.625 24.7948 30.2152 24.313 30.2632 24.2668L30.8179 23.7121C30.9405 23.5823 31.1059 23.5734 31.2801 23.689C31.4508 23.8419 31.4276 24.1086 31.7903 24.2934C32.0961 24.4161 32.7503 24.3219 32.9014 24.0588C33.1059 23.7103 33.1556 23.5894 33.2481 23.4579C33.3939 23.2641 33.6428 23.3512 33.6428 23.4117C33.6196 23.5201 33.4739 23.6286 33.5734 23.8223C33.7476 23.9521 33.7868 23.8686 33.8899 23.8401C34.2525 23.6659 34.5228 22.8801 34.5228 22.8801C34.5388 22.5868 34.3752 22.6117 34.2685 22.6721C34.1299 22.7557 34.121 22.7841 33.9823 22.8694C33.8045 22.8961 33.4614 23.0134 33.2925 22.7503C33.1183 22.4339 33.1148 21.993 32.9832 21.6748C32.9832 21.6517 32.7521 21.1717 32.9672 21.1414C33.0756 21.161 33.305 21.2214 33.3423 21.0294C33.4543 20.841 33.0988 20.3041 32.857 20.0321C32.6454 19.801 32.3521 19.7726 32.0694 20.009C31.8703 20.1921 31.8988 20.3948 31.8596 20.5886C31.8273 20.7253 31.8274 20.8677 31.8598 21.0044C31.8922 21.1411 31.9561 21.2684 32.0463 21.3761C32.2436 21.7654 32.6045 22.2686 32.4854 22.9726C32.4854 22.9726 32.2756 23.3068 31.9076 23.2641C31.7548 23.2303 31.5059 23.1646 31.3743 22.1868C31.2748 21.4454 31.3992 20.409 31.0845 19.9237C30.9708 19.6303 30.889 19.3477 30.6116 19.849C30.537 20.0463 30.217 20.345 30.4499 20.9619C30.6401 21.3512 30.7165 21.9859 30.6312 22.6934C30.4996 22.8943 30.4712 22.9619 30.2988 23.1628C30.057 23.4223 29.7956 23.3566 29.5948 23.2588C29.4063 23.1326 29.2605 23.0668 29.1752 22.665C29.1912 22.025 29.2268 20.9761 29.1094 20.7539C28.937 20.409 28.6525 20.5334 28.5299 20.6383C27.945 21.1734 27.657 22.0748 27.481 22.7912C27.3192 23.3139 27.1468 23.1646 27.0259 22.953C26.7308 22.6757 26.7112 20.5121 26.3539 20.8694C25.7796 22.4943 26.6774 24.2792 27.2996 24.105Z" fill="white"/>
<path d="M35.7992 27.5975L35.6286 27.4997L32.2846 27.4837C32.1121 27.4179 32.1637 27.361 32.2846 27.3148C33.0828 27.2063 34.5032 26.9752 34.5975 25.6117C34.5815 24.9023 34.2917 24.4366 33.4206 24.3086C32.7824 24.3583 32.3255 24.9788 32.3984 25.6597C32.3681 25.8446 32.4588 26.2037 32.2721 26.2446C31.0437 26.3566 29.705 27.1246 29.6606 27.6757C29.5859 27.7272 29.4188 27.5779 29.4401 27.3432C29.381 26.3394 29.092 25.3626 28.5957 24.4881C28.2081 24.1006 28.329 24.2286 28.0695 24.4117C27.9024 24.6037 27.8721 24.7352 27.881 25.1175C27.881 25.1317 28.1939 26.0046 28.4588 26.6161C28.6348 27.2437 28.8001 27.9601 28.681 28.6375C28.2686 29.5335 27.4384 30.337 26.6384 30.7726C26.2259 30.9059 25.8721 30.8579 25.785 30.7655C25.5308 30.5948 25.5432 30.2801 25.5628 30.2748C26.2366 29.8037 27.0081 29.425 27.6126 28.1575C27.7904 27.6739 27.8437 27.3806 27.6677 26.6321C27.6188 26.3684 27.4975 26.1234 27.3175 25.9246C27.4259 25.8535 27.737 26.0899 27.785 25.9495C27.6949 25.5398 27.4909 25.1639 27.1966 24.865C26.9566 24.6463 26.6952 24.6215 26.4748 24.8223C26.2259 24.961 26.1726 25.4552 26.2917 25.889C26.4232 26.2161 26.7806 26.2712 27.0366 26.9272C27.0366 26.9415 27.129 27.4179 26.9975 27.6046C26.8926 27.9317 25.5326 29.0001 25.4579 29.0481C25.4206 29.0943 25.4366 29.025 25.4312 28.8472C25.4224 28.6303 25.5184 28.1183 25.4917 28.1148C25.049 28.401 24.9015 29.2775 24.8215 29.537C23.7015 30.3103 22.4339 30.8863 21.7015 31.6721C21.3192 32.2677 24.329 30.9877 24.6792 30.833C24.7575 30.8899 24.7486 31.1583 24.9584 31.3983C25.2712 31.8215 25.9326 32.0828 26.5815 31.921C27.6659 31.5281 28.2935 30.7886 28.9299 29.969C29.0206 29.8357 29.1628 29.7343 29.2944 29.8357C29.7317 30.8152 30.9957 31.5086 32.6259 31.5815C33.0046 31.121 32.8215 30.8988 32.6686 30.8028C32.6686 30.7886 31.8632 30.4828 31.7406 30.177C31.6659 29.8997 31.8472 29.6561 32.2099 29.4712C33.257 29.345 34.2864 29.2046 35.2837 28.8846C35.2944 28.5503 35.4881 28.049 35.6215 27.8321C35.7495 27.6117 35.8188 27.6775 35.7992 27.5975ZM33.049 25.5139C33.0988 25.4303 33.2641 25.4339 33.4188 25.5246C33.5735 25.6135 33.6606 25.7557 33.609 25.8392C33.5592 25.9246 33.3921 25.9192 33.2375 25.8286C33.0828 25.7397 32.9992 25.5992 33.049 25.5139ZM31.7032 28.8917C31.3441 29.0143 30.9992 29.1103 30.9992 29.6295C31.1326 30.3512 30.8161 30.1041 30.6295 30.0046C30.409 29.8463 29.7886 29.4641 29.6997 28.6392C29.6855 28.4419 29.8401 28.2766 30.0872 28.2766C30.4588 28.3779 31.0081 28.385 31.4846 28.4348C31.8739 28.4597 32.0677 28.7655 31.7032 28.8917ZM19.3175 20.8828C19.7015 21.0677 20.4268 20.9895 20.3948 20.3672C20.3948 20.3121 20.3806 20.1272 20.3752 20.0775C20.297 19.8943 20.0837 19.9388 20.0339 20.129C20.0179 20.1912 20.0606 20.2908 20.0055 20.3228C19.9735 20.3548 19.8508 20.3352 19.8561 20.1646C19.8561 20.1095 19.8152 20.0508 19.7921 20.017C19.7672 20.001 19.753 19.9957 19.7086 19.9957C19.6552 19.9975 19.6552 20.0117 19.6268 20.0579C19.6144 20.1023 19.5966 20.1486 19.5966 20.2001C19.5895 20.2606 19.5664 20.2819 19.5219 20.2926C19.4721 20.2926 19.4828 20.2979 19.4437 20.2712C19.4188 20.2446 19.3886 20.2339 19.3886 20.1895C19.3884 20.1375 19.38 20.0859 19.3637 20.0366C19.3424 20.0081 19.3086 19.9957 19.2695 19.985C19.0597 19.985 19.0455 20.225 19.0579 20.3175C19.0384 20.3335 19.0312 20.7637 19.3175 20.8828Z" fill="white"/>
<path d="M31.1325 24.9357C31.1325 24.8806 31.0916 24.8237 31.0685 24.7881C31.0436 24.7721 31.0294 24.7668 30.985 24.7668C30.9316 24.7686 30.9334 24.7828 30.9032 24.829C30.8907 24.8753 30.873 24.9197 30.873 24.9713C30.8676 25.0335 30.8427 25.0548 30.7983 25.0637C30.7485 25.0637 30.7592 25.069 30.7183 25.0441C30.6934 25.0175 30.6632 25.0068 30.6632 24.9624C30.6632 24.9104 30.6548 24.8588 30.6383 24.8095C30.617 24.781 30.5832 24.7686 30.5441 24.7597C30.3343 24.7597 30.3201 24.9997 30.3307 25.0904C30.3147 25.1081 30.3058 25.5366 30.5921 25.6575C30.9778 25.8406 31.8934 25.7339 31.6694 25.1419C31.6657 25.0446 31.6591 24.9473 31.6498 24.8504C31.5716 24.6673 31.3565 24.7135 31.3085 24.9019C31.2943 24.9641 31.337 25.0637 31.2801 25.0957C31.2516 25.1277 31.1272 25.1081 31.1325 24.9357ZM37.1716 23.6788C37.5556 23.8637 38.2792 23.7855 38.2472 23.165C38.2434 23.0677 38.2369 22.9705 38.2276 22.8735C38.1494 22.6904 37.9361 22.7366 37.8881 22.925C37.8721 22.9873 37.9147 23.0868 37.8578 23.1188C37.8258 23.1508 37.7032 23.133 37.7085 22.9606C37.7085 22.9055 37.6676 22.8468 37.6445 22.813C37.6196 22.797 37.6054 22.7917 37.5592 22.7917C37.5058 22.7953 37.5076 22.8077 37.4774 22.8539C37.465 22.9001 37.4472 22.9446 37.4472 22.9961C37.4401 23.0584 37.417 23.0797 37.3725 23.0886C37.3227 23.0886 37.3334 23.0939 37.2925 23.069C37.2676 23.0424 37.2392 23.0317 37.2392 22.9873C37.239 22.9347 37.2306 22.8825 37.2143 22.8326C37.1912 22.8041 37.1592 22.7917 37.1183 22.7828C36.9085 22.7828 36.8943 23.0228 36.9067 23.1135C36.8943 23.1313 36.8854 23.5597 37.1716 23.6788ZM37.4312 21.2753C37.5681 21.6593 37.3263 22.0255 37.4703 22.0788C37.6001 22.1393 37.785 21.6824 37.8525 21.261C37.9325 20.9197 37.689 20.221 37.3441 20.077C37.1343 20.0273 36.8356 20.1517 36.9316 20.4326C36.8836 20.5677 37.3547 21.0264 37.4312 21.2753ZM40.9778 30.2779C41.2463 30.2797 41.5556 29.6646 41.6872 29.0548C41.7601 28.2157 41.6374 27.7055 41.6161 27.2113C41.593 26.7188 41.0596 22.9588 40.9494 22.5855C40.8196 21.8797 41.4703 22.4913 41.3992 22.0806C41.1734 21.5633 40.6134 20.8113 40.4356 20.3615C40.329 20.1695 40.3752 19.9988 40.137 20.3117C39.9183 21.0317 39.8418 21.6184 39.9254 22.0664C40.4907 25.0175 41.0703 27.4708 40.9778 30.2779ZM47.6552 22.5624C47.7174 22.7544 47.561 23.3748 47.6907 23.4317C47.8098 23.4957 47.977 23.0033 48.0392 22.5464C48.073 22.2957 47.8898 21.421 47.5752 21.2646C47.3832 21.2113 47.1112 21.3446 47.2001 21.6504C47.1556 21.7979 47.5858 22.2921 47.6552 22.5624ZM24.3325 29.0619C24.4481 29.1099 24.6063 28.7473 24.6667 28.4113C24.7005 28.2264 24.5227 27.5846 24.2223 27.469C24.0374 27.4299 23.785 27.4797 23.8632 27.7535C23.8543 27.901 24.2721 28.0788 24.297 28.4219C24.3574 28.5641 24.2081 29.021 24.3325 29.0619ZM16.233 20.8575C16.2916 21.005 16.1743 21.4761 16.297 21.5206C16.409 21.5704 16.5672 21.1935 16.6258 20.8468C16.6596 20.6548 16.633 20.0041 16.1885 19.8708C16.0054 19.8299 15.7512 19.9313 15.8347 20.1641C15.7921 20.2744 16.1672 20.6513 16.233 20.8575ZM24.9476 22.9428C24.6081 23.1277 24.4747 23.6753 24.6881 23.9935C24.8854 24.2761 25.1983 24.1713 25.241 24.1713C25.5752 24.2121 25.7725 23.5455 25.7725 23.5455C25.7725 23.5455 25.7832 23.3588 25.3867 23.7126C25.2196 23.7446 25.1983 23.6824 25.1574 23.5864C25.1169 23.4124 25.135 23.2299 25.209 23.0673C25.2658 22.9019 25.1378 22.829 24.9476 22.9428ZM27.5112 20.893C27.566 20.8592 27.613 20.8141 27.6491 20.7608C27.6853 20.7075 27.7098 20.6471 27.721 20.5837C27.7725 20.3241 27.4454 20.7064 27.4045 20.4166C27.3316 20.1481 27.5414 20.0379 27.7405 19.7784C27.7476 19.5988 27.7441 19.4726 27.5005 19.6184C27.3298 19.7339 26.9885 20.0859 26.9778 20.4913C26.9672 20.7206 26.9245 20.7188 27.0756 20.8646C27.1841 21.0228 27.2925 21.0068 27.5112 20.893ZM29.8205 21.0317C30.041 20.4344 30.041 20.1819 30.057 19.9277C29.9894 19.5419 29.7281 19.5544 29.5556 19.9828C29.481 20.1446 29.3938 20.9961 29.4081 20.9961C29.3494 21.2504 29.673 21.3588 29.8205 21.0317ZM44.345 25.2681C44.345 25.2681 42.5618 26.5357 42.5192 26.5801C42.3414 26.7366 42.4303 27.2913 42.5192 27.2273C42.6454 27.277 44.4392 26.0593 44.4036 25.917C44.4872 25.9206 44.5281 25.2041 44.345 25.2681ZM44.1263 28.7064C44.2454 28.7704 44.5601 28.381 44.5476 27.8957C44.5832 27.645 44.457 26.7259 44.1441 26.5695C43.9521 26.5161 43.6961 26.6797 43.785 26.9837C43.7405 27.1295 44.0054 27.6397 44.0747 27.9099C44.137 28.1037 43.9965 28.6495 44.1263 28.7064ZM34.0285 31.3659C34.0285 31.3819 34.1796 31.5117 34.3574 31.4086C34.7307 31.2646 34.9654 31.1259 35.4881 31.0104C35.625 31.0086 35.6161 30.6406 35.3992 30.6281C35.1165 30.6424 34.8534 30.6566 34.5707 30.8806C34.3965 30.9197 34.3681 30.8148 34.329 30.7188C34.2863 30.4824 34.4267 30.3188 34.3965 30.1428C34.4072 30.1535 34.2347 29.9953 34.0587 30.0841C34.0499 30.0841 33.6658 30.3437 33.5432 30.525C33.4667 30.5837 33.4756 30.6335 33.4987 30.7313C33.5574 30.8664 33.6623 30.8255 33.7796 30.7615C33.9361 30.7401 34.0107 30.8433 33.9983 31.0299C33.9236 31.2664 34.0285 31.3535 34.0285 31.3659ZM45.6747 31.661C45.6161 31.7624 45.577 31.9153 45.7583 31.9633C46.0925 32.0575 46.8623 31.5561 46.8623 31.5473C46.9867 31.453 46.9458 31.277 46.9352 31.277C46.8623 31.1935 46.6987 31.2415 46.5885 31.229C46.537 31.229 46.3627 31.2024 46.4463 31.0495C46.5051 30.9671 46.5518 30.8767 46.585 30.781C46.6365 30.6655 46.5921 30.589 46.4036 30.5268C46.2134 30.4913 46.137 30.509 45.9254 30.5268C45.8116 30.5517 45.7725 30.6015 45.7512 30.7401C45.7601 30.9499 45.8863 30.9393 46.0178 31.0228C46.0943 31.1206 46.1441 31.2095 46.0125 31.3677C45.8881 31.4833 45.801 31.5473 45.6747 31.661ZM45.3334 40.8877H42.6667V39.9988C42.6667 39.7631 42.5731 39.537 42.4064 39.3703C42.2397 39.2036 42.0136 39.1099 41.7778 39.1099C41.5421 39.1099 41.316 39.2036 41.1493 39.3703C40.9826 39.537 40.889 39.7631 40.889 39.9988V40.8877H19.5556C19.5556 40.8877 19.5556 42.6655 24.889 42.6655H40.889V43.5544C40.889 43.7901 40.9826 44.0162 41.1493 44.1829C41.316 44.3496 41.5421 44.4433 41.7778 44.4433C42.0136 44.4433 42.2397 44.3496 42.4064 44.1829C42.5731 44.0162 42.6667 43.7901 42.6667 43.5544V42.6655H44.4445V43.5544C44.4445 43.7901 44.5382 44.0162 44.7049 44.1829C44.8716 44.3496 45.0977 44.4433 45.3334 44.4433C45.5692 44.4433 45.7952 44.3496 45.9619 44.1829C46.1286 44.0162 46.2223 43.7901 46.2223 43.5544V41.7766C46.2223 41.5408 46.1286 41.3148 45.9619 41.1481C45.7952 40.9814 45.5692 40.8877 45.3334 40.8877Z" fill="white"/>
</svg>
