<svg width="64" height="64" viewBox="0 0 64 64" fill="none" xmlns="http://www.w3.org/2000/svg">
<path d="M56.8889 8.89062H7.11111C5.22513 8.89063 3.41639 9.63983 2.0828 10.9734C0.749204 12.307 0 14.1158 0 16.0017L0 48.0017C0 49.8877 0.749204 51.6965 2.0828 53.03C3.41639 54.3636 5.22513 55.1128 7.11111 55.1128H56.8889C58.7749 55.1128 60.5836 54.3636 61.9172 53.03C63.2508 51.6965 64 49.8877 64 48.0017V16.0017C64 14.1158 63.2508 12.307 61.9172 10.9734C60.5836 9.63983 58.7749 8.89063 56.8889 8.89062Z" fill="#4189DD"/>
<path d="M34.4979 28.56L32.0001 20.8711L29.5023 28.56H21.417L27.9574 33.312L25.4597 41.0009L32.0001 36.2489L38.5406 41.0009L36.0428 33.312L42.5832 28.56H34.4979Z" fill="white"/>
</svg>
