<svg width="64" height="64" viewBox="0 0 64 64" fill="none" xmlns="http://www.w3.org/2000/svg">
<g clip-path="url(#clip0_167_661)">
<path d="M1 25H64V39H1V25Z" fill="#E6E7E8"/>
<path d="M32.416 32L4.486 11.5C1.513 13.407 0 16.942 0 21V43C0 46.883 1.385 50.289 4.11 52.246L32.454 32.027L32.416 32Z" fill="#137A08"/>
<path d="M22.6801 39L4.12109 52.238C5.65609 53.345 7.60909 54 10.0001 54H54.0001C60.6271 54 64.0001 49.075 64.0001 43V39H22.6801Z" fill="#25333A"/>
<path d="M54.0003 10H10.0003C7.79933 10 5.97033 10.553 4.48633 11.5L22.8793 25H63.9993V21C63.9993 14.925 60.6273 10 54.0003 10Z" fill="#EC1C24"/>
</g>
<defs>
<clipPath id="clip0_167_661">
<rect width="64" height="64" fill="white"/>
</clipPath>
</defs>
</svg>
