<svg width="108" height="36" viewBox="0 0 108 36" fill="none" xmlns="http://www.w3.org/2000/svg">
<path d="M17.5993 35.1986C7.87917 35.1986 0 27.3195 0 17.5993C0 7.87917 7.87917 0 17.5993 0C27.3194 0 35.1986 7.87917 35.1986 17.5993C35.1975 27.3195 27.3183 35.1986 17.5993 35.1986Z" fill="url(#paint0_linear_443_75)"/>
<path d="M16.843 29.1615L26.1103 28.2773C27.7413 28.1218 29.0761 26.9142 29.395 25.3081L29.6697 23.928C29.7071 23.7384 29.5198 23.5829 29.3417 23.6545L16.7307 28.6939C16.4685 28.7983 16.5627 29.1876 16.843 29.1615Z" fill="url(#paint1_linear_443_75)"/>
<path d="M5.55943 8.31339C5.43798 7.76632 5.64228 7.60629 6.02024 7.95133C7.30506 9.12492 10.2504 12.0861 12.7383 16.5955C15.2535 21.1536 16.2352 25.68 16.5587 27.555C16.6495 28.0805 16.4021 28.1714 16.0037 27.7593C14.594 26.2986 11.3411 22.729 9.2652 18.8678C7.17907 14.9861 5.99413 10.2781 5.55943 8.31339Z" fill="url(#paint2_linear_443_75)"/>
<path d="M55.874 15.0003C55.874 15.6574 55.7832 16.284 55.6016 16.8798C55.42 17.4757 55.1692 18.0251 54.8502 18.5256C54.5302 19.0273 54.1409 19.4801 53.6834 19.8865C53.2249 20.2928 52.7198 20.6253 52.1671 20.8841L55.874 26.6386H52.1671L48.8744 21.5322H46.7486L48.0187 18.4212H49.367C50.3 18.4212 51.1036 18.0841 51.7778 17.4099C52.0888 17.0819 52.3305 16.7096 52.503 16.2953C52.6756 15.881 52.7618 15.4486 52.7618 14.9991C52.7618 14.5497 52.6756 14.1172 52.503 13.703C52.3305 13.2887 52.0888 12.9255 51.7778 12.6145C51.1036 11.9403 50.3 11.6032 49.367 11.6032H45.6862V26.6374H42.5752V8.49219H49.367C50.2648 8.49219 51.1081 8.66471 51.8947 9.01088C52.6812 9.35706 53.3679 9.82355 53.9558 10.4103C54.5426 10.9983 55.0103 11.6849 55.3553 12.4715C55.7015 13.2592 55.874 14.1014 55.874 15.0003Z" fill="white"/>
<path d="M70.3384 21.4542C70.3384 22.3009 70.1999 23.0659 69.9241 23.748C69.6472 24.4313 69.2544 25.0102 68.7448 25.4846C68.2352 25.9602 67.6178 26.3268 66.8914 26.5867C66.165 26.8455 65.3535 26.976 64.4545 26.976C63.0199 26.976 61.7419 26.7467 60.6182 26.2893C59.4946 25.8319 58.5707 25.3087 57.8443 24.7207L59.9963 22.5688C60.566 23.0875 61.205 23.4847 61.9144 23.7617C62.3457 23.9342 62.752 24.0465 63.1334 24.0988C63.5136 24.151 63.8246 24.1771 64.0664 24.1771C64.5158 24.1771 64.9256 24.1214 65.2978 24.0079C65.669 23.8956 65.9936 23.7446 66.2705 23.554C66.8573 23.1227 67.1524 22.5518 67.1524 21.8435C67.1524 21.4122 66.9969 21.0229 66.6859 20.6767C66.4442 20.4009 66.1332 20.1762 65.753 20.0025C65.442 19.83 65.1128 19.6916 64.7678 19.5883C64.4216 19.485 64.1106 19.3896 63.8348 19.3034C63.7486 19.2693 63.6702 19.2478 63.601 19.2387C63.5318 19.2296 63.4716 19.208 63.4194 19.174C63.3842 19.174 63.3331 19.157 63.2639 19.1218C62.9018 19.0185 62.3786 18.8369 61.6953 18.577C61.0121 18.3182 60.3345 17.9641 59.6603 17.5146C58.0872 16.4602 57.3018 15.164 57.3018 13.6261C57.3018 12.6069 57.4788 11.7466 57.8329 11.0474C58.1871 10.3471 58.6501 9.77733 59.2199 9.33695C59.7908 8.89657 60.4253 8.58104 61.1256 8.39036C61.8259 8.20081 62.5125 8.10547 63.1867 8.10547C64.4307 8.10547 65.4772 8.25302 66.3227 8.54585C67.1694 8.83981 67.8436 9.13378 68.3442 9.42661C68.6041 9.5821 68.8243 9.73306 69.0059 9.88061C69.1875 10.0282 69.3464 10.1621 69.486 10.2824L67.2829 12.5115C66.8165 12.0451 66.3409 11.6909 65.8574 11.4492C65.131 11.1041 64.3717 10.9305 63.576 10.9305C63.2299 10.9305 62.8848 10.9736 62.5387 11.0599C62.1925 11.1461 61.8906 11.2585 61.6307 11.397C60.8702 11.8635 60.49 12.4775 60.49 13.2368C60.49 13.7033 60.6455 14.1017 60.9565 14.4297C61.1812 14.6885 61.4922 14.9223 61.8894 15.13C62.2174 15.3025 62.5636 15.441 62.9268 15.5443C63.29 15.6475 63.6271 15.7429 63.9381 15.8291L64.2491 15.9063C64.3354 15.9415 64.4988 15.9926 64.7417 16.0618C64.9834 16.1311 65.2683 16.2343 65.5975 16.3728C65.9255 16.5113 66.2841 16.6759 66.6735 16.8654C67.0628 17.0561 67.4464 17.2797 67.8266 17.5396C69.4996 18.6462 70.3384 19.9503 70.3384 21.4542Z" fill="white"/>
<path d="M90.4668 16.7632C90.4929 17.022 90.5054 17.2819 90.5054 17.5407C90.5054 18.8369 90.2591 20.0593 89.7665 21.209C89.274 22.3588 88.5998 23.3599 87.744 24.2157C86.8882 25.0714 85.886 25.7445 84.7374 26.2371C83.5876 26.7297 82.3652 26.976 81.069 26.976C79.7729 26.976 78.5505 26.7297 77.4007 26.2371C76.251 25.7445 75.2488 25.0703 74.3941 24.2157C73.5383 23.3599 72.8652 22.3588 72.3727 21.209C71.8801 20.0593 71.6338 18.8369 71.6338 17.5407C71.6338 16.2445 71.8801 15.0222 72.3727 13.8724C72.8652 12.7238 73.5394 11.7204 74.3941 10.8658C75.2499 10.01 76.2521 9.33694 77.4007 8.84435C78.5493 8.35176 79.7729 8.10547 81.069 8.10547C82.3822 8.10547 83.6092 8.35176 84.7498 8.84435C85.8905 9.33694 86.8836 10.0157 87.7304 10.8794L85.5534 13.0824C84.9485 12.4775 84.2618 12.0155 83.4923 11.6955C82.7227 11.3754 81.9158 11.2154 81.069 11.2154C80.2223 11.2154 79.4187 11.3754 78.6583 11.6955C77.8978 12.0155 77.2146 12.4775 76.6108 13.0824C76.0058 13.6874 75.5439 14.3695 75.2238 15.13C74.9037 15.8904 74.7437 16.694 74.7437 17.5407C74.7437 18.3874 74.9037 19.1956 75.2238 19.9639C75.5439 20.7335 76.0058 21.4201 76.6108 22.0251C77.2157 22.6301 77.8978 23.0875 78.6583 23.3985C79.4187 23.7094 80.2223 23.8649 81.069 23.8649C81.9158 23.8649 82.7239 23.7094 83.4923 23.3985C84.2607 23.0875 84.9485 22.6301 85.5534 22.0251C86.3649 21.1784 86.9188 20.2023 87.2128 19.0957H78.8138L79.5913 15.9846H90.3749C90.4112 16.2446 90.4407 16.5045 90.4668 16.7632Z" fill="white"/>
<path d="M107.743 26.6374H104.321L101.522 20.4154L97.8412 12.2763L94.1604 20.4154H98.8786L100.278 23.5264H92.7609L91.3615 26.6374H87.9395L96.1308 8.49219H99.5528L107.743 26.6374Z" fill="white"/>
<defs>
<linearGradient id="paint0_linear_443_75" x1="-0.000486393" y1="17.5993" x2="107.741" y2="17.5993" gradientUnits="userSpaceOnUse">
<stop offset="0.005618" stop-color="#D7F0FC"/>
<stop offset="0.5556" stop-color="#ABE1FA"/>
<stop offset="1" stop-color="#96CFF1"/>
</linearGradient>
<linearGradient id="paint1_linear_443_75" x1="-0.00174866" y1="17.5969" x2="107.734" y2="17.5969" gradientUnits="userSpaceOnUse">
<stop stop-color="#2E3190"/>
<stop offset="1" stop-color="#004EE4"/>
</linearGradient>
<linearGradient id="paint2_linear_443_75" x1="-0.00321792" y1="17.5982" x2="107.734" y2="17.5982" gradientUnits="userSpaceOnUse">
<stop stop-color="#41BAFF"/>
<stop offset="1" stop-color="#004EE4"/>
</linearGradient>
</defs>
</svg>
